<svg xmlns="http://www.w3.org/2000/svg" width="512" height="512"><path fill="#F44336" d="M313.52 43.91c5.3 3.152 9.222 7.335 11.793 12.965 1.938 8.813-.42 16.679-2.595 25.237q-.53 2.126-1.056 4.253c-.954 3.844-1.92 7.686-2.889 11.527-1.03 4.099-2.05 8.2-3.07 12.3a15096 15096 0 0 1-5.146 20.592c-2.4 9.58-4.783 19.166-7.16 28.753l-2.256 9.099-.563 2.274c-8.071 32.543-16.192 65.074-24.307 97.607l-2.68 10.742-.671 2.694a53884 53884 0 0 0-10.89 43.75q-5.64 22.697-11.307 45.387-3.469 13.886-6.913 27.78a7893 7893 0 0 1-4.715 18.904q-1.363 5.435-2.706 10.875c-.97 3.935-1.958 7.865-2.948 11.795l-.838 3.44c-2.47 9.695-5.19 18.152-13.638 24.057-5.655 3.047-13.204 3.167-19.285 1.375-6.792-3.111-10.521-8.16-13.2-14.996-1.831-8.846.976-17.264 3.138-25.8q.591-2.376 1.179-4.753c1.078-4.345 2.168-8.687 3.26-13.028 1.177-4.686 2.343-9.375 3.51-14.064 2.287-9.181 4.585-18.36 6.886-27.538q2.805-11.19 5.6-22.383l.805-3.219 1.616-6.473c5.054-20.233 10.12-40.463 15.189-60.693a58126 58126 0 0 0 13.02-52.067 89689 89689 0 0 1 16.728-66.922l.802-3.205q2.797-11.175 5.585-22.353 3.4-13.625 6.82-27.246 1.746-6.947 3.477-13.899 1.585-6.367 3.19-12.73.578-2.297 1.148-4.598c5.622-22.71 5.622-22.71 16.364-29.482 5.579-2.196 13.127-1.978 18.723.043"/><path fill="#5F7C8B" d="M372.409 108.259c6.859 3.564 12.072 9.666 17.461 15.094q1.927 1.918 3.856 3.834c3.478 3.46 6.944 6.932 10.406 10.408 3.632 3.642 7.273 7.274 10.913 10.907q9.164 9.155 18.308 18.33c7.04 7.062 14.096 14.11 21.159 21.15q9.107 9.082 18.194 18.185a5703 5703 0 0 0 10.855 10.849q5.11 5.093 10.194 10.214a932 932 0 0 0 3.74 3.734c13.72 13.632 13.72 13.632 15.001 22.45l-.058 3.211-.004 3.227c-1.75 12.7-15.834 22.708-24.496 31.403q-1.781 1.792-3.561 3.586-5.791 5.828-11.592 11.647l-4.016 4.032q-8.351 8.385-16.71 16.763-11.932 11.954-23.833 23.939-8.402 8.46-16.83 16.892a3290 3290 0 0 0-10.02 10.07 2005 2005 0 0 1-9.429 9.452 628 628 0 0 0-3.436 3.463c-6.906 7.007-13.628 13.505-23.613 15.53-7.08-.186-12.39-1.332-17.652-6.277-4.261-4.703-6.522-9.088-6.683-15.54l-.122-2.605c1.829-10.496 9.112-17.458 16.408-24.624a2061.625 2061.625 0 0 1 12.274-12.213c3.135-3.103 6.255-6.22 9.377-9.337a8482 8482 0 0 1 17.743-17.636c6.745-6.69 13.476-13.392 20.205-20.097A27224 27224 0 0 1 458 257c-1.531-3.628-3.689-5.926-6.472-8.686l-1.385-1.381c-1.53-1.524-3.067-3.04-4.604-4.557l-3.296-3.278a4505 4505 0 0 0-7.105-7.049 5749 5749 0 0 1-11.23-11.16 23321 23321 0 0 0-31.94-31.73 9759 9759 0 0 1-17.635-17.531 3711 3711 0 0 0-11.167-11.079 2105 2105 0 0 1-6.946-6.913 675 675 0 0 0-3.223-3.19 588 588 0 0 1-4.398-4.38l-2.486-2.467c-4.433-5.454-5.674-10.936-5.465-17.884.859-6.628 4.265-11.476 9.352-15.715 6.373-4.62 15.246-4.386 22.409-1.741"/><path fill="#607C8B" d="M159.5 108.188c5.489 3.979 9.437 8.303 11.5 14.812 1.051 7.284.027 12.777-4 19-3.404 3.967-7.108 7.614-10.827 11.281l-3.342 3.344c-3.01 3.01-6.03 6.008-9.055 9.004-3.163 3.139-6.315 6.288-9.469 9.437a10850 10850 0 0 1-17.923 17.838c-6.811 6.766-13.61 13.544-20.409 20.322A34833 34833 0 0 1 54 255c1.516 3.57 3.604 5.844 6.345 8.565l2.766 2.761 3.043 3.007 3.198 3.184q3.443 3.428 6.893 6.848A5838 5838 0 0 1 87.15 290.21q13.537 13.484 27.095 26.946 10.532 10.454 21.041 20.93a4502 4502 0 0 0 10.834 10.76 2660 2660 0 0 1 6.753 6.725 842 842 0 0 0 3.124 3.095c15.029 14.823 15.029 14.823 15.315 25.522-.084 6.421-1.54 10.862-5.96 15.566-4.703 4.261-9.088 6.522-15.54 6.683l-2.605.122c-11.197-1.95-18.493-10.145-26.12-17.873a2650.69 2650.69 0 0 1-14.017-14.044c-3.569-3.592-7.15-7.17-10.73-10.75q-9.006-9.016-17.99-18.054-10.379-10.44-20.787-20.85-11.096-11.106-22.178-22.226l-6.377-6.39q-5.014-5.023-10.013-10.059-1.833-1.845-3.671-3.684a1545 1545 0 0 1-5.013-5.044l-1.465-1.457C2.99 270.18-.126 265.184-.312 256.813l-.114-3.293c1.287-10.636 9.584-17.247 16.779-24.39q1.918-1.927 3.834-3.856c3.46-3.478 6.932-6.944 10.408-10.406 3.642-3.632 7.274-7.273 10.907-10.913a12012 12012 0 0 1 18.33-18.308c7.062-7.04 14.11-14.096 21.15-21.159a10895 10895 0 0 1 18.185-18.194q5.431-5.42 10.849-10.855 5.093-5.11 10.214-10.194a932 932 0 0 0 3.734-3.74c10.355-10.421 19.928-18.613 35.536-13.317"/></svg>